<?xml version="1.0" encoding="UTF-8"?>
<svg width="416px" height="93px" viewBox="0 0 416 93" version="1.1" xmlns="http://www.w3.org/2000/svg" xmlns:xlink="http://www.w3.org/1999/xlink">
    <!-- Generator: Sketch 61 (89581) - https://sketch.com -->
    <title>Wazir Logo - Horizontal</title>
    <desc>Created with Sketch.</desc>
    <g id="Logofiles" stroke="none" stroke-width="1" fill="none" fill-rule="evenodd">
        <g id="Wazir-X---Vertical" transform="translate(-140.000000, -236.000000)" fill="#3067F0">
            <g id="Wazir-Logo-Horizontal/Blue-" transform="translate(140.000000, 236.000000)">
                <polygon id="Fill-1" points="132.59283 30.5984238 147.773388 30.5984238 155.101933 60.3690999 163.216323 30.5984238 175.51781 30.5984238 183.631556 60.3690999 190.960102 30.5984238 206.141303 30.5984238 190.960102 78.7488638 177.61168 78.7488638 169.105011 47.2958513 160.991265 78.6197468 147.381109 78.6197468"></polygon>
                <path d="M233.7546,66.7112856 C226.961098,66.7112856 221.453114,61.2642047 221.453114,54.5443996 C221.453114,47.8245946 226.961098,42.3768777 233.7546,42.3768777 C240.548102,42.3768777 246.056087,47.8245946 246.056087,54.5443996 C246.056087,61.2642047 240.548102,66.7112856 233.7546,66.7112856 L233.7546,66.7112856 Z M246.056087,30.4688616 L246.056087,35.6577087 C243.533925,31.2912665 239.354545,28.9156421 232.707665,28.9156421 C218.107809,28.9156421 206.79538,40.1036564 206.79538,54.5443996 C206.79538,68.9845069 217.583698,80.690897 232.184198,80.690897 C239.193132,80.690897 243.495983,78.2046009 246.056087,73.7446603 L246.056087,78.6193016 L260.452087,78.6193016 L260.452087,30.4688616 L246.056087,30.4688616 Z" id="Fill-2"></path>
                <polygon id="Fill-4" points="267.256972 30.4689252 303.376873 30.4689252 303.376873 41.8592014 284.5314 67.7468288 303.376873 67.7468288 303.376873 78.6193652 267.256972 78.6193652 267.256972 68.7823085 287.933939 41.3414616 267.256972 41.3414616"></polygon>
                <polygon id="Fill-6" points="309.920025 78.6194924 324.577758 78.6194924 324.577758 30.4690524 309.920025 30.4690524"></polygon>
                <path d="M348.657521,35.3833193 L348.657521,30.4686072 L335.047366,30.4686072 L335.047366,78.6196832 L349.704456,78.6196832 L349.704456,51.5668232 C349.704456,42.6361292 360.959651,43.4127389 360.959651,43.4127389 L360.959651,28.9153877 C353.848467,28.9153877 350.241428,32.8544083 348.657521,35.3833193" id="Fill-8"></path>
                <polygon id="Fill-9" points="362.791466 30.4689252 380.328271 30.4689252 388.17964 43.153551 396.032296 30.4689252 413.568458 30.4689252 396.817498 52.9912438 415.401238 77.8427555 415.401238 78.6193652 397.864433 78.6193652 388.17964 63.8637801 378.496134 78.6193652 360.959329 78.6193652 360.959329 77.8427555 379.281336 52.9912438"></polygon>
                <path d="M323.530887,19.8549408 C323.530887,16.4234833 320.718053,13.6420628 317.248634,13.6420628 C313.779858,13.6420628 310.967667,16.4234833 310.967667,19.8549408 C310.967667,23.2863982 313.779858,26.0678187 317.248634,26.0678187 C320.718053,26.0678187 323.530887,23.2863982 323.530887,19.8549408" id="Fill-10"></path>
                <g id="Wazir-Logo-Updated/Solo/Blue" stroke-width="1">
                    <g id="Group-7" fill="none">
                        <polygon id="Path" fill="#3067F0" points="4.37250437 92.9382128 103.747604 92.9382128 103.747604 81.353117 4.37250437 81.353117"></polygon>
                        <polygon id="Path" fill="#3067F0" points="24.5125245 35.6147382 0 18.7935998 4.50620886 68.9956815"></polygon>
                        <polygon id="Path" fill="#3067F0" points="34.980035 75.1743993 103.848149 75.1743993 108.782609 20.0808327"></polygon>
                        <polygon id="Path" fill="#3067F0" points="77.5125775 34.5767458 23.5940225 74.7882294 8.74500874 74.7882294 36.1431364 29.0165959 53.6315025 0"></polygon>
                    </g>
                </g>
            </g>
        </g>
    </g>
</svg>